<svg id="svg2" xmlns="http://www.w3.org/2000/svg" viewBox="0 0 155.66 155.66"><defs><style>.cls-1{fill:#fff;fill-rule:evenodd;}</style></defs><title>Plan de travail 1</title><g id="layer1"><path id="path4205" class="cls-1" d="M137.65,26.54,115.9,68.11l-5.34-3C124.05,34.82,122.28,34.85,93,30.73l.76-6.48Z"/><path id="path4228" class="cls-1" d="M114,39.89c-10.76,7.94-15.39,13.7-18.31,20-.9-5.87-3-12.79-7.44-16C95.49,44.08,101.39,45.29,114,39.89Z"/><path id="path4205-0" class="cls-1" d="M18,26.81,39.76,68.38l5.34-3C31.61,35.09,33.39,35.12,62.65,31l-.77-6.48Z"/><path id="path4228-5" class="cls-1" d="M41.67,40.16C52.43,48.1,55.53,52.33,60,60.56c.9-5.87,3.4-13.8,7.62-17.16-7.95.52-13.33,2.16-25.93-3.24Z"/><path id="path4205-6" class="cls-1" d="M78,144,53.1,105l5.28-3.15c19.68,26.64,20,26.57,39.3-.4l4.86,3.86Z"/><path id="path4228-0" class="cls-1" d="M68.51,93.08c5.49,2.25,14.94,1.79,20-.31-3.89,6.11-8.26,13.17-10.12,26.76C76.58,106,72.43,99.16,68.51,93.08Z"/><path id="path4266" class="cls-1" d="M78.52,11.66S78,78.42,44,82a168.08,168.08,0,0,1,21.55,8.33c8-2.5,15.81-2.22,25.19-.36a132,132,0,0,1,20.38-8C78.33,79,78.52,11.66,78.52,11.66Zm-.29,18.55C81.82,68.94,89.68,75.1,99.46,81.28l-9.3,4c-6.45-2-17.28-1.45-24.8.31l-9.94-3.82C64.57,76.62,73.9,68.74,78.23,30.21Z"/><path id="path4307" class="cls-1" d="M78.39,65.87l3.34,6.55-3.34,6.32L75,72.42Z"/></g></svg>